<svg width="100" height="100" xmlns="http://www.w3.org/2000/svg">
  <defs>
    <pattern id="pattern" width="100" height="100" patternUnits="userSpaceOnUse">
      <circle cx="10" cy="10" r="1.5" fill="#fff" opacity="0.4" />
      <circle cx="30" cy="10" r="1" fill="#fff" opacity="0.3" />
      <circle cx="50" cy="10" r="2" fill="#fff" opacity="0.2" />
      <circle cx="70" cy="10" r="1" fill="#fff" opacity="0.4" />
      <circle cx="90" cy="10" r="1.5" fill="#fff" opacity="0.2" />
      
      <circle cx="10" cy="30" r="1" fill="#fff" opacity="0.2" />
      <circle cx="30" cy="30" r="1.5" fill="#fff" opacity="0.4" />
      <circle cx="50" cy="30" r="1" fill="#fff" opacity="0.3" />
      <circle cx="70" cy="30" r="2" fill="#fff" opacity="0.2" />
      <circle cx="90" cy="30" r="1" fill="#fff" opacity="0.3" />
      
      <circle cx="10" cy="50" r="2" fill="#fff" opacity="0.2" />
      <circle cx="30" cy="50" r="1" fill="#fff" opacity="0.3" />
      <circle cx="50" cy="50" r="1.5" fill="#fff" opacity="0.4" />
      <circle cx="70" cy="50" r="1" fill="#fff" opacity="0.3" />
      <circle cx="90" cy="50" r="2" fill="#fff" opacity="0.2" />
      
      <circle cx="10" cy="70" r="1" fill="#fff" opacity="0.3" />
      <circle cx="30" cy="70" r="2" fill="#fff" opacity="0.2" />
      <circle cx="50" cy="70" r="1" fill="#fff" opacity="0.3" />
      <circle cx="70" cy="70" r="1.5" fill="#fff" opacity="0.4" />
      <circle cx="90" cy="70" r="1" fill="#fff" opacity="0.3" />
      
      <circle cx="10" cy="90" r="1.5" fill="#fff" opacity="0.2" />
      <circle cx="30" cy="90" r="1" fill="#fff" opacity="0.4" />
      <circle cx="50" cy="90" r="2" fill="#fff" opacity="0.2" />
      <circle cx="70" cy="90" r="1" fill="#fff" opacity="0.3" />
      <circle cx="90" cy="90" r="1.5" fill="#fff" opacity="0.4" />
    </pattern>
  </defs>
  <rect width="100%" height="100%" fill="url(#pattern)" />
</svg> 